<svg width="35" height="35" viewBox="0 0 35 35" fill="none" xmlns="http://www.w3.org/2000/svg">
<path d="M17.5002 7C19.4332 7 21.0002 5.433 21.0002 3.5C21.0002 1.567 19.4332 0 17.5002 0C15.5672 0 14.0002 1.567 14.0002 3.5C14.0002 5.433 15.5672 7 17.5002 7Z" fill="black"/>
<path d="M23.3333 8.16675H11.6667C10.0559 8.16675 8.75 9.47262 8.75 11.0834V19.8334C8.75 20.7999 9.53347 21.5834 10.5 21.5834C11.4665 21.5834 12.25 20.8 12.25 19.8334V12.2501H13.4167V33.25C13.4167 34.2165 14.2002 35 15.1667 35C16.1332 35 16.9167 34.2166 16.9167 33.25V21.5834H18.0834V33.25C18.0834 34.2165 18.8669 35 19.8334 35C20.7998 35 21.5834 34.2166 21.5834 33.25V12.2501H22.75V19.8334C22.75 20.7998 23.5335 21.5834 24.5 21.5834C25.4665 21.5834 26.25 20.7999 26.25 19.8334V11.0834C26.25 9.47255 24.9442 8.16675 23.3333 8.16675Z" fill="black"/>
</svg>
