<svg width="35" height="35" viewBox="0 0 35 35" fill="none" xmlns="http://www.w3.org/2000/svg">
<path d="M17.4993 7C19.4323 7 20.9993 5.433 20.9993 3.5C20.9993 1.567 19.4323 0 17.4993 0C15.5663 0 13.9993 1.567 13.9993 3.5C13.9993 5.433 15.5663 7 17.4993 7Z" fill="black"/>
<path d="M28.1333 16.0882L24.4991 9.64819C23.9831 8.73498 23.0164 8.16924 21.9675 8.1665H13.0308C11.9807 8.1704 11.0138 8.73853 10.4991 9.654L6.87665 16.0707C6.40114 16.9121 6.69782 17.9797 7.53932 18.4552C7.54007 18.4556 7.54089 18.4561 7.54165 18.4565C8.38137 18.9246 9.44142 18.6277 9.91584 17.7915L13.1825 11.6665H14.2442L8.80753 23.0823C8.66896 23.3732 8.79249 23.7213 9.08336 23.8598C9.16122 23.8969 9.24632 23.9163 9.33253 23.9165H13.4158V33.2499C13.4158 34.2163 14.1994 34.9999 15.1658 34.9999C16.1323 34.9999 16.9158 34.2164 16.9158 33.2499V23.9166H18.0825V33.2499C18.0825 34.2163 18.8661 34.9999 19.8325 34.9999C20.799 34.9999 21.5825 34.2164 21.5825 33.2499V23.9166H25.6658C25.988 23.9157 26.2485 23.6537 26.2475 23.3316C26.2472 23.2454 26.2279 23.1603 26.1908 23.0825L20.7541 11.6666H21.8158L25.0825 17.8033C25.5644 18.6411 26.6342 18.9296 27.472 18.4478C28.2981 17.9725 28.5921 16.9235 28.1333 16.0882Z" fill="black"/>
</svg>
